<?xml version="1.0" encoding="UTF-8"?>
<!DOCTYPE svg PUBLIC "-//W3C//DTD SVG 1.1//EN" "http://www.w3.org/Graphics/SVG/1.1/DTD/svg11.dtd">
<svg xmlns="http://www.w3.org/2000/svg" version="1.1" width="300px" height="89px" style="shape-rendering:geometricPrecision; text-rendering:geometricPrecision; image-rendering:optimizeQuality; fill-rule:evenodd; clip-rule:evenodd" xmlns:xlink="http://www.w3.org/1999/xlink">
<g><path style="opacity:0.94" fill="#fefffe" d="M 45.5,-0.5 C 53.8333,-0.5 62.1667,-0.5 70.5,-0.5C 55.7018,14.7985 40.7018,29.9652 25.5,45C 40.4963,45.4999 55.4963,45.6666 70.5,45.5C 70.5,59.8333 70.5,74.1667 70.5,88.5C 62.1667,88.5 53.8333,88.5 45.5,88.5C 45.6664,80.8261 45.4997,73.1594 45,65.5C 29.9114,66.4908 14.7448,66.8242 -0.5,66.5C -0.5,59.5 -0.5,52.5 -0.5,45.5C 15.1667,30.5 30.5,15.1667 45.5,-0.5 Z"/></g>
<g><path style="opacity:0.928" fill="#fefffe" d="M 79.5,-0.5 C 95.5,-0.5 111.5,-0.5 127.5,-0.5C 127.666,7.50694 127.5,15.5069 127,23.5C 119.667,30.8333 112.333,38.1667 105,45.5C 104.333,53.1667 104.333,60.8333 105,68.5C 111.802,60.697 118.969,53.197 126.5,46C 127.167,45.3333 127.833,45.3333 128.5,46C 127.518,54.081 127.184,62.2476 127.5,70.5C 111.5,70.5 95.5,70.5 79.5,70.5C 79.3336,62.16 79.5003,53.8267 80,45.5C 87.8333,37.6667 95.6667,29.8333 103.5,22C 102.387,14.8353 102.221,7.66863 103,0.5C 95.3188,8.0143 87.8188,15.681 80.5,23.5C 79.5023,15.5277 79.169,7.52766 79.5,-0.5 Z"/></g>
<g><path style="opacity:0.63" fill="#fefffe" d="M 149.5,45.5 C 150.5,45.5 151.5,45.5 152.5,45.5C 152.5,53.8333 152.5,62.1667 152.5,70.5C 151.5,70.5 150.5,70.5 149.5,70.5C 149.5,62.1667 149.5,53.8333 149.5,45.5 Z"/></g>
<g><path style="opacity:0.663" fill="#fefffe" d="M 161.5,50.5 C 162.833,50.5 164.167,50.5 165.5,50.5C 165.5,52.1667 165.5,53.8333 165.5,55.5C 166.833,55.5 168.167,55.5 169.5,55.5C 169.5,53.8333 169.5,52.1667 169.5,50.5C 170.833,50.5 172.167,50.5 173.5,50.5C 173.002,55.1522 172.669,59.8189 172.5,64.5C 171.167,64.5 169.833,64.5 168.5,64.5C 168.662,62.4727 168.495,60.4727 168,58.5C 166.989,59.3366 165.822,59.67 164.5,59.5C 164.5,61.1667 164.5,62.8333 164.5,64.5C 163.167,64.5 161.833,64.5 160.5,64.5C 160.998,59.8478 161.331,55.1811 161.5,50.5 Z"/></g>
<g><path style="opacity:0.612" fill="#fefffe" d="M 175.5,50.5 C 178.167,50.5 180.833,50.5 183.5,50.5C 183.567,53.766 181.901,55.266 178.5,55C 179.793,55.49 181.127,55.6567 182.5,55.5C 182.5,56.8333 182.5,58.1667 182.5,59.5C 177.318,59.5573 177.318,60.224 182.5,61.5C 182.167,62.1667 181.833,62.8333 181.5,63.5C 178.914,64.48 176.247,64.8134 173.5,64.5C 174.167,59.8333 174.833,55.1667 175.5,50.5 Z"/></g>
<g><path style="opacity:0.636" fill="#fefffe" d="M 184.5,50.5 C 185.833,50.5 187.167,50.5 188.5,50.5C 188.002,55.1522 187.669,59.8189 187.5,64.5C 186.167,64.5 184.833,64.5 183.5,64.5C 183.669,59.8189 184.002,55.1522 184.5,50.5 Z"/></g>
<g><path style="opacity:0.643" fill="#fefffe" d="M 190.5,50.5 C 191.833,50.5 193.167,50.5 194.5,50.5C 193.793,53.7861 193.46,57.1194 193.5,60.5C 194.5,60.5 195.5,60.5 196.5,60.5C 196.5,61.8333 196.5,63.1667 196.5,64.5C 193.753,64.8134 191.086,64.48 188.5,63.5C 189.312,59.1942 189.979,54.8609 190.5,50.5 Z"/></g>
<g><path style="opacity:0.697" fill="#fefffe" d="M 198.5,50.5 C 201.482,50.1044 204.149,50.7711 206.5,52.5C 206.451,55.1139 206.785,57.7806 207.5,60.5C 207.41,62.4251 206.41,63.5917 204.5,64C 202.19,64.4966 199.857,64.6633 197.5,64.5C 197.669,59.8189 198.002,55.1522 198.5,50.5 Z M 201.5,58.5 C 203.76,59.2376 203.927,60.2376 202,61.5C 201.517,60.552 201.351,59.552 201.5,58.5 Z"/></g>
<g><path style="opacity:0.687" fill="#fefffe" d="M 209.5,50.5 C 217.773,49.4094 220.106,52.4094 216.5,59.5C 217.167,60.8333 217.833,62.1667 218.5,63.5C 215.251,65.222 213.418,64.222 213,60.5C 212.51,61.7932 212.343,63.1266 212.5,64.5C 211.167,64.5 209.833,64.5 208.5,64.5C 208.669,59.8189 209.002,55.1522 209.5,50.5 Z"/></g>
<g><path style="opacity:0.716" fill="#fefffe" d="M 224.5,50.5 C 232.546,50.3627 235.38,54.0294 233,61.5C 230.441,64.3492 227.274,65.1825 223.5,64C 218.088,59.1869 218.421,54.6869 224.5,50.5 Z M 224.5,54.5 C 228.945,53.8735 230.612,55.5402 229.5,59.5C 224.153,61.4861 222.486,59.8194 224.5,54.5 Z"/></g>
<g><path style="opacity:0.679" fill="#fefffe" d="M 235.5,50.5 C 236.873,50.3433 238.207,50.51 239.5,51C 241,53.1667 242.5,55.3333 244,57.5C 244.311,55.444 244.811,53.444 245.5,51.5C 246.833,50.1667 248.167,50.1667 249.5,51.5C 248.589,55.788 247.922,60.1214 247.5,64.5C 246.022,64.762 244.689,64.4287 243.5,63.5C 239.476,55.4205 237.81,55.7538 238.5,64.5C 237.167,64.5 235.833,64.5 234.5,64.5C 235.127,59.8592 235.46,55.1925 235.5,50.5 Z"/></g>
<g><path style="opacity:0.69" fill="#fefffe" d="M 250.5,50.5 C 254.682,51.5089 257.515,54.1755 259,58.5C 259.497,55.854 259.664,53.1873 259.5,50.5C 260.833,50.5 262.167,50.5 263.5,50.5C 263.331,55.1811 262.998,59.8478 262.5,64.5C 258.705,63.556 255.871,61.2227 254,57.5C 253.503,59.8098 253.337,62.1432 253.5,64.5C 252.167,64.5 250.833,64.5 249.5,64.5C 249.833,59.8333 250.167,55.1667 250.5,50.5 Z"/></g>
</svg>
