<?xml version="1.0" encoding="UTF-8"?>
<!DOCTYPE svg PUBLIC "-//W3C//DTD SVG 1.1//EN" "http://www.w3.org/Graphics/SVG/1.1/DTD/svg11.dtd">
<svg xmlns="http://www.w3.org/2000/svg" version="1.1" width="512px" height="512px" style="shape-rendering:geometricPrecision; text-rendering:geometricPrecision; image-rendering:optimizeQuality; fill-rule:evenodd; clip-rule:evenodd" xmlns:xlink="http://www.w3.org/1999/xlink">
<g><path style="opacity:0.986" fill="#1a1a1a" d="M 511.5,65.5 C 511.5,76.1667 511.5,86.8333 511.5,97.5C 509.128,120.653 503.462,142.986 494.5,164.5C 493.019,164.635 491.353,164.301 489.5,163.5C 496.017,144.615 500.684,125.282 503.5,105.5C 501.167,105.5 498.833,105.5 496.5,105.5C 493.133,124.66 487.466,142.993 479.5,160.5C 478.358,158.567 476.692,157.067 474.5,156C 422.937,132.356 371.27,108.689 319.5,85C 318.92,83.6651 318.587,82.4985 318.5,81.5C 342.997,47.8974 374.663,23.3974 413.5,8C 454.519,-4.57245 485.353,7.92755 506,45.5C 508.487,52.1292 510.321,58.7958 511.5,65.5 Z"/></g>
<g><path style="opacity:0.956" fill="#f7f7f7" d="M 231.5,111.5 C 231.5,111.167 231.5,110.833 231.5,110.5C 231.5,109.833 231.833,109.5 232.5,109.5C 236.605,106.73 239.605,103.063 241.5,98.5C 242.404,97.791 242.737,96.791 242.5,95.5C 243.404,94.791 243.737,93.791 243.5,92.5C 244.473,90.0521 244.806,87.3854 244.5,84.5C 244.795,82.2646 244.461,80.2646 243.5,78.5C 243.396,76.2972 242.73,74.2972 241.5,72.5C 240.833,71.5 240.167,70.5 239.5,69.5C 238.524,68.1851 237.524,66.8518 236.5,65.5C 223.304,66.8261 210.137,66.8261 197,65.5C 195.667,66.8333 194.333,68.1667 193,69.5C 192.601,69.2716 192.435,68.9382 192.5,68.5C 197.619,61.7016 204.286,57.3683 212.5,55.5C 232.928,55.0778 244.262,65.2445 246.5,86C 245.964,97.2532 240.964,105.753 231.5,111.5 Z"/></g>
<g><path style="opacity:1" fill="#f0f0f0" d="M 239.5,69.5 C 223.907,70.3179 208.241,70.8179 192.5,71C 191.744,72.3803 191.078,72.547 190.5,71.5C 190.932,70.2905 191.599,69.2905 192.5,68.5C 192.435,68.9382 192.601,69.2716 193,69.5C 194.333,68.1667 195.667,66.8333 197,65.5C 210.137,66.8261 223.304,66.8261 236.5,65.5C 237.524,66.8518 238.524,68.1851 239.5,69.5 Z"/></g>
<g><path style="opacity:1" fill="#e9eaea" d="M 239.5,69.5 C 240.167,70.5 240.833,71.5 241.5,72.5C 224.494,74.1491 207.328,75.1491 190,75.5C 189.536,74.9056 189.369,74.2389 189.5,73.5C 189.328,72.5084 189.662,71.8417 190.5,71.5C 191.078,72.547 191.744,72.3803 192.5,71C 208.241,70.8179 223.907,70.3179 239.5,69.5 Z"/></g>
<g><path style="opacity:1" fill="#e3e3e4" d="M 241.5,72.5 C 242.73,74.2972 243.396,76.2972 243.5,78.5C 242.833,78.5 242.5,78.8333 242.5,79.5C 224.212,79.183 206.212,78.183 188.5,76.5C 188.263,75.209 188.596,74.209 189.5,73.5C 189.369,74.2389 189.536,74.9056 190,75.5C 207.328,75.1491 224.494,74.1491 241.5,72.5 Z"/></g>
<g><path style="opacity:1" fill="#ddddde" d="M 188.5,76.5 C 206.212,78.183 224.212,79.183 242.5,79.5C 224.53,81.4869 206.197,82.1535 187.5,81.5C 187.5,80.5 187.5,79.5 187.5,78.5C 187.328,77.5084 187.662,76.8417 188.5,76.5 Z"/></g>
<g><path style="opacity:1" fill="#d7d7d8" d="M 187.5,78.5 C 187.5,79.5 187.5,80.5 187.5,81.5C 206.197,82.1535 224.53,81.4869 242.5,79.5C 242.5,78.8333 242.833,78.5 243.5,78.5C 244.461,80.2646 244.795,82.2646 244.5,84.5C 225.137,85.8223 205.804,85.8223 186.5,84.5C 186.205,82.2646 186.539,80.2646 187.5,78.5 Z"/></g>
<g><path style="opacity:0.998" fill="#222222" d="M 318.5,81.5 C 318.587,82.4985 318.92,83.6651 319.5,85C 371.27,108.689 422.937,132.356 474.5,156C 476.692,157.067 478.358,158.567 479.5,160.5C 476.959,168.575 473.626,176.241 469.5,183.5C 420.053,159.282 370.053,135.782 319.5,113C 313.48,110.327 307.813,107.16 302.5,103.5C 306.857,95.4496 312.191,88.1163 318.5,81.5 Z"/></g>
<g><path style="opacity:0.999" fill="#d0d1d2" d="M 186.5,84.5 C 205.804,85.8223 225.137,85.8223 244.5,84.5C 244.806,87.3854 244.473,90.0521 243.5,92.5C 243.66,90.8008 243.494,89.1341 243,87.5C 224.243,88.4927 205.41,88.826 186.5,88.5C 186.5,87.1667 186.5,85.8333 186.5,84.5 Z"/></g>
<g><path style="opacity:1" fill="#c7c7c9" d="M 212.5,55.5 C 204.286,57.3683 197.619,61.7016 192.5,68.5C 191.599,69.2905 190.932,70.2905 190.5,71.5C 189.662,71.8417 189.328,72.5084 189.5,73.5C 188.596,74.209 188.263,75.209 188.5,76.5C 187.662,76.8417 187.328,77.5084 187.5,78.5C 186.539,80.2646 186.205,82.2646 186.5,84.5C 186.5,85.8333 186.5,87.1667 186.5,88.5C 205.41,88.826 224.243,88.4927 243,87.5C 243.494,89.1341 243.66,90.8008 243.5,92.5C 243.737,93.791 243.404,94.791 242.5,95.5C 224.896,95.8134 207.063,95.48 189,94.5C 188.536,95.0944 188.369,95.7611 188.5,96.5C 187.833,96.5 187.5,96.8333 187.5,97.5C 181.075,77.5133 187.742,63.68 207.5,56C 209.134,55.5065 210.801,55.3398 212.5,55.5 Z"/></g>
<g><path style="opacity:1" fill="#bdbec0" d="M 242.5,95.5 C 242.737,96.791 242.404,97.791 241.5,98.5C 240.922,97.453 240.256,97.6197 239.5,99C 223.17,99.4999 206.837,99.6666 190.5,99.5C 189.599,98.7095 188.932,97.7095 188.5,96.5C 188.369,95.7611 188.536,95.0944 189,94.5C 207.063,95.48 224.896,95.8134 242.5,95.5 Z"/></g>
<g><path style="opacity:1" fill="#b4b5b8" d="M 241.5,98.5 C 239.605,103.063 236.605,106.73 232.5,109.5C 232.082,108.778 231.416,108.278 230.5,108C 225.5,107.833 220.5,107.667 215.5,107.5C 209.109,107.571 203.109,107.904 197.5,108.5C 194.027,106.363 191.694,103.363 190.5,99.5C 206.837,99.6666 223.17,99.4999 239.5,99C 240.256,97.6197 240.922,97.453 241.5,98.5 Z"/></g>
<g><path style="opacity:0.996" fill="#282828" d="M 302.5,103.5 C 307.813,107.16 313.48,110.327 319.5,113C 370.053,135.782 420.053,159.282 469.5,183.5C 469.461,184.583 469.127,185.583 468.5,186.5C 469.5,186.833 470.5,187.167 471.5,187.5C 474.14,186.905 476.807,186.572 479.5,186.5C 480.872,187.512 482.205,188.512 483.5,189.5C 479.59,198.326 474.923,206.659 469.5,214.5C 469.063,212.926 468.063,211.759 466.5,211C 468.311,209.959 468.645,208.793 467.5,207.5C 469.097,203.811 471.097,200.311 473.5,197C 469.382,196.797 465.382,197.464 461.5,199C 459.699,201.443 458.032,203.943 456.5,206.5C 401.705,181.602 347.038,156.436 292.5,131C 290.714,129.804 289.381,128.304 288.5,126.5C 292.428,118.298 297.094,110.631 302.5,103.5 Z"/></g>
<g><path style="opacity:0.376" fill="#d0d0d0" d="M 188.5,96.5 C 188.932,97.7095 189.599,98.7095 190.5,99.5C 191.694,103.363 194.027,106.363 197.5,108.5C 203.495,113.717 210.495,115.717 218.5,114.5C 216.167,115.167 213.833,115.833 211.5,116.5C 199.926,114.584 191.926,108.251 187.5,97.5C 187.5,96.8333 187.833,96.5 188.5,96.5 Z"/></g>
<g><path style="opacity:1" fill="#ababae" d="M 197.5,108.5 C 203.109,107.904 209.109,107.571 215.5,107.5C 220.5,107.667 225.5,107.833 230.5,108C 231.416,108.278 232.082,108.778 232.5,109.5C 231.833,109.5 231.5,109.833 231.5,110.5C 227.457,112.624 223.123,113.958 218.5,114.5C 210.495,115.717 203.495,113.717 197.5,108.5 Z"/></g>
<g><path style="opacity:0.204" fill="#ededed" d="M 231.5,110.5 C 231.5,110.833 231.5,111.167 231.5,111.5C 230.025,113.41 228.025,114.576 225.5,115C 220.915,116.225 216.248,116.725 211.5,116.5C 213.833,115.833 216.167,115.167 218.5,114.5C 223.123,113.958 227.457,112.624 231.5,110.5 Z"/></g>
<g><path style="opacity:0.998" fill="#2e2e2e" d="M 288.5,126.5 C 289.381,128.304 290.714,129.804 292.5,131C 347.038,156.436 401.705,181.602 456.5,206.5C 450.975,214.896 444.975,222.896 438.5,230.5C 438.607,228.621 438.107,228.288 437,229.5C 383.016,203.415 328.85,178.415 274.5,154.5C 278.643,144.88 283.31,135.547 288.5,126.5 Z"/></g>
<g><path style="opacity:0.986" fill="#e30613" d="M 142.5,149.5 C 141.448,149.351 140.448,149.517 139.5,150C 109.439,195.301 79.7725,240.801 50.5,286.5C 47.1553,283.322 43.6553,280.322 40,277.5C 37.6101,278.278 35.4434,279.445 33.5,281C 42.3387,291.005 51.672,300.505 61.5,309.5C 60.5,311.167 59.1667,312.5 57.5,313.5C 35.4704,295.11 17.9704,273.11 5,247.5C 2.6825,241.863 0.849164,236.197 -0.5,230.5C -0.5,223.833 -0.5,217.167 -0.5,210.5C 6.49263,176.34 27.1593,155.506 61.5,148C 88.7291,143.106 115.729,143.606 142.5,149.5 Z"/></g>
<g><path style="opacity:0.995" fill="#e30815" d="M 142.5,149.5 C 149.503,150.251 156.17,151.917 162.5,154.5C 130.5,203.5 98.5,252.5 66.5,301.5C 60.5374,297.205 55.204,292.205 50.5,286.5C 79.7725,240.801 109.439,195.301 139.5,150C 140.448,149.517 141.448,149.351 142.5,149.5 Z"/></g>
<g><path style="opacity:0.997" fill="#353535" d="M 438.5,230.5 C 430.727,239.728 422.061,248.061 412.5,255.5C 400.35,249.263 388.016,243.097 375.5,237C 337.873,219.855 300.206,202.688 262.5,185.5C 265.321,174.702 269.321,164.369 274.5,154.5C 328.85,178.415 383.016,203.415 437,229.5C 438.107,228.288 438.607,228.621 438.5,230.5 Z"/></g>
<g><path style="opacity:0.995" fill="#e40e1b" d="M 162.5,154.5 C 169.915,155.86 176.915,158.194 183.5,161.5C 183.023,164.021 181.856,166.688 180,169.5C 170.273,183.564 160.94,197.897 152,212.5C 129.391,246.738 106.558,280.738 83.5,314.5C 77.2847,310.891 71.618,306.558 66.5,301.5C 98.5,252.5 130.5,203.5 162.5,154.5 Z"/></g>
<g><path style="opacity:1" fill="#e4121e" d="M 183.5,161.5 C 184.609,161.557 185.609,161.89 186.5,162.5C 185.648,165.223 184.481,167.89 183,170.5C 150.585,219.4 118.418,268.4 86.5,317.5C 85.1667,316.833 84.1667,315.833 83.5,314.5C 106.558,280.738 129.391,246.738 152,212.5C 160.94,197.897 170.273,183.564 180,169.5C 181.856,166.688 183.023,164.021 183.5,161.5 Z"/></g>
<g><path style="opacity:0.997" fill="#e41621" d="M 186.5,162.5 C 192.136,164.322 197.469,166.655 202.5,169.5C 200.983,169.511 199.816,170.177 199,171.5C 166.22,222.751 132.72,273.418 98.5,323.5C 97.056,322.019 96.3894,322.352 96.5,324.5C 93.1667,322.167 89.8333,319.833 86.5,317.5C 118.418,268.4 150.585,219.4 183,170.5C 184.481,167.89 185.648,165.223 186.5,162.5 Z"/></g>
<g><path style="opacity:0.877" fill="#222222" d="M 489.5,163.5 C 491.353,164.301 493.019,164.635 494.5,164.5C 491.619,173.254 487.953,181.587 483.5,189.5C 482.205,188.512 480.872,187.512 479.5,186.5C 482.597,178.648 485.93,170.982 489.5,163.5 Z"/></g>
<g><path style="opacity:1" fill="#e41824" d="M 202.5,169.5 C 203.167,169.5 203.833,169.5 204.5,169.5C 169.958,220.217 136.125,271.551 103,323.5C 102.147,325.125 101.147,325.458 100,324.5C 99.5357,325.094 99.369,325.761 99.5,326.5C 98.5,325.833 97.5,325.167 96.5,324.5C 96.3894,322.352 97.056,322.019 98.5,323.5C 132.72,273.418 166.22,222.751 199,171.5C 199.816,170.177 200.983,169.511 202.5,169.5 Z"/></g>
<g><path style="opacity:0.993" fill="#e51c28" d="M 204.5,169.5 C 210.36,172.262 216.026,175.262 221.5,178.5C 186.784,230.784 152.117,283.784 117.5,337.5C 117.624,338.107 117.957,338.44 118.5,338.5C 115.375,340.225 112.042,341.725 108.5,343C 110.491,343.374 112.158,344.207 113.5,345.5C 112.5,345.5 111.5,345.5 110.5,345.5C 110.473,347.199 109.806,348.533 108.5,349.5C 103.184,346.528 97.8504,343.528 92.5,340.5C 92.7497,338.326 93.7497,336.659 95.5,335.5C 100.136,336.412 104.47,335.412 108.5,332.5C 105.643,330.242 102.643,328.242 99.5,326.5C 99.369,325.761 99.5357,325.094 100,324.5C 101.147,325.458 102.147,325.125 103,323.5C 136.125,271.551 169.958,220.217 204.5,169.5 Z"/></g>
<g><path style="opacity:0.998" fill="#e6222e" d="M 221.5,178.5 C 227.857,181.342 233.857,184.675 239.5,188.5C 204.306,240.634 169.973,292.967 136.5,345.5C 130.489,343.16 124.489,340.827 118.5,338.5C 117.957,338.44 117.624,338.107 117.5,337.5C 152.117,283.784 186.784,230.784 221.5,178.5 Z"/></g>
<g><path style="opacity:0.984" fill="#3a3a3a" d="M 262.5,185.5 C 300.206,202.688 337.873,219.855 375.5,237C 388.016,243.097 400.35,249.263 412.5,255.5C 395.893,270.135 376.559,279.468 354.5,283.5C 372.522,283.243 389.522,278.743 405.5,270C 411.223,266.478 416.889,262.978 422.5,259.5C 424.017,259.511 425.184,260.177 426,261.5C 427.512,260.743 428.846,259.743 430,258.5C 430.464,259.094 430.631,259.761 430.5,260.5C 417.107,272.366 401.774,280.866 384.5,286C 375.797,292.034 369.297,299.867 365,309.5C 355.439,339.075 347.439,369.075 341,399.5C 335.41,425.448 330.077,451.448 325,477.5C 322.708,481.788 319.208,484.622 314.5,486C 292.442,489.102 271.775,485.102 252.5,474C 250.654,471.976 249.321,469.643 248.5,467C 265.857,415.262 283.024,363.429 300,311.5C 300.893,310.289 301.726,310.289 302.5,311.5C 285.688,362.269 269.688,413.269 254.5,464.5C 270.135,460.774 285.802,460.608 301.5,464C 303.587,464.792 305.421,465.959 307,467.5C 318.798,406.475 333.964,346.309 352.5,287C 339.818,287.437 327.151,288.437 314.5,290C 312.246,291.377 310.08,292.877 308,294.5C 305.772,299.564 303.605,304.564 301.5,309.5C 300.07,306.567 298.07,304.067 295.5,302C 285.337,295.084 275.003,288.417 264.5,282C 256.042,275.648 251.542,267.148 251,256.5C 250.141,231.98 253.974,208.313 262.5,185.5 Z"/></g>
<g><path style="opacity:0.992" fill="#e62a35" d="M 239.5,188.5 C 243.078,190.075 246.411,192.075 249.5,194.5C 242.576,214.954 239.742,235.954 241,257.5C 241.775,267.185 245.609,275.352 252.5,282C 262.663,288.916 272.997,295.583 283.5,302C 286.979,304.312 289.979,307.146 292.5,310.5C 288.5,321.833 284.5,333.167 280.5,344.5C 273.779,348.527 266.779,352.027 259.5,355C 264.021,359.022 268.688,362.856 273.5,366.5C 271.164,372.51 268.831,378.51 266.5,384.5C 250.498,373.333 233.164,370.5 214.5,376C 184.87,377.84 156.536,372.674 129.5,360.5C 129.423,359.25 128.756,358.417 127.5,358C 128.191,356.933 128.691,355.766 129,354.5C 129.69,355.738 130.19,355.738 130.5,354.5C 154.914,364.883 180.414,370.216 207,370.5C 213.278,370.481 219.444,369.648 225.5,368C 236.367,363.714 247.033,359.047 257.5,354C 255,352.167 252.5,350.333 250,348.5C 238.897,355.534 226.73,359.367 213.5,360C 186.519,361.502 160.852,356.669 136.5,345.5C 169.973,292.967 204.306,240.634 239.5,188.5 Z"/></g>
<g><path style="opacity:0.949" fill="#2e2e2e" d="M 467.5,207.5 C 468.645,208.793 468.311,209.959 466.5,211C 468.063,211.759 469.063,212.926 469.5,214.5C 465.133,222.58 459.8,229.913 453.5,236.5C 451.433,234.453 449.6,234.453 448,236.5C 447.601,236.272 447.435,235.938 447.5,235.5C 454.587,226.422 461.254,217.088 467.5,207.5 Z"/></g>
<g><path style="opacity:0.892" fill="#343434" d="M 453.5,236.5 C 446.535,245.133 438.868,253.133 430.5,260.5C 430.631,259.761 430.464,259.094 430,258.5C 428.846,259.743 427.512,260.743 426,261.5C 425.184,260.177 424.017,259.511 422.5,259.5C 430.807,251.528 439.14,243.528 447.5,235.5C 447.435,235.938 447.601,236.272 448,236.5C 449.6,234.453 451.433,234.453 453.5,236.5 Z"/></g>
<g><path style="opacity:0.866" fill="#e40e1a" d="M 61.5,309.5 C 67.1914,314.197 72.858,318.863 78.5,323.5C 76.3523,323.389 76.019,324.056 77.5,325.5C 76.3881,326.265 75.7214,327.265 75.5,328.5C 69.0907,323.966 63.0907,318.966 57.5,313.5C 59.1667,312.5 60.5,311.167 61.5,309.5 Z"/></g>
<g><path style="opacity:0.866" fill="#e41521" d="M 78.5,323.5 C 84.19,327.532 89.8566,331.532 95.5,335.5C 93.7497,336.659 92.7497,338.326 92.5,340.5C 86.8333,336.5 81.1667,332.5 75.5,328.5C 75.7214,327.265 76.3881,326.265 77.5,325.5C 76.019,324.056 76.3523,323.389 78.5,323.5 Z"/></g>
<g><path style="opacity:0.863" fill="#e6222e" d="M 113.5,345.5 C 119.36,348.262 125.026,351.262 130.5,354.5C 130.19,355.738 129.69,355.738 129,354.5C 128.691,355.766 128.191,356.933 127.5,358C 128.756,358.417 129.423,359.25 129.5,360.5C 122.308,357.072 115.308,353.405 108.5,349.5C 109.806,348.533 110.473,347.199 110.5,345.5C 111.5,345.5 112.5,345.5 113.5,345.5 Z"/></g>
<g><path style="opacity:0.978" fill="#3a3a3a" d="M 304.5,347.5 C 307.249,347.274 309.916,347.607 312.5,348.5C 313.896,349.852 314.563,351.519 314.5,353.5C 308.489,377.697 300.989,401.364 292,424.5C 287.207,430.098 281.374,431.598 274.5,429C 273.128,427.758 272.128,426.258 271.5,424.5C 277.422,402.232 284.256,380.232 292,358.5C 294.708,353.079 298.875,349.413 304.5,347.5 Z"/></g>
<g><path style="opacity:0.983" fill="#e62a35" d="M 350.5,385.5 C 355.936,389.09 361.27,392.923 366.5,397C 379.333,408.5 392.167,420 405,431.5C 407.839,439.651 405.006,443.484 396.5,443C 393.371,441.601 390.371,439.935 387.5,438C 374.037,426.873 360.871,415.373 348,403.5C 348.756,397.54 349.589,391.54 350.5,385.5 Z"/></g>
<g><path style="opacity:0.981" fill="#e72a35" d="M 352.5,377.5 C 382.96,402.121 413.293,426.954 443.5,452C 448.472,455.527 449.638,460.027 447,465.5C 436.731,483.103 422.564,496.603 404.5,506C 398.26,508.311 392.26,507.978 386.5,505C 370.366,487.198 353.866,469.698 337,452.5C 337.911,445.114 339.411,437.78 341.5,430.5C 360.88,448.712 379.38,467.712 397,487.5C 400.402,480.763 405.235,475.263 411.5,471C 420.966,464.434 431.299,459.767 442.5,457C 412.981,431.313 383.314,405.813 353.5,380.5C 352.614,379.675 352.281,378.675 352.5,377.5 Z"/></g>
</svg>
